# xmcd
#
# Track frame offsets: 
#        150
#        19512
#        35405
#        50182
#        69755
#        82282
#        105722
#        124067
#        142575
#        156880
#        176392
#        190952
#
# Disc length: 2798 seconds
#
# Revision: 3
# Processed by: cddbd v1.5.2PL0 Copyright (c) Steve Scherf et al.
# Submitted via: ExactAudioCopy v0.99pb4
#
DISCID=9a0aec0c
DTITLE=Kim Stockwood - Bonavista
DYEAR=1995
DGENRE=Rock
TTITLE0=She's Not In Love
TTITLE1=Enough Love
TTITLE2=I'd Rather Be Lonely Alone
TTITLE3=N.A.S.H.V.I.L.L.E.
TTITLE4=Half The Man
TTITLE5=Be Where You Are
TTITLE6=Compassion
TTITLE7=Love When You Need Love
TTITLE8=Cry Crazy
TTITLE9=Strong As I Have To Be
TTITLE10=A Good Man
TTITLE11=How Many Miles
EXTD=
EXTT0=
EXTT1=
EXTT2=
EXTT3=
EXTT4=
EXTT5=
EXTT6=
EXTT7=
EXTT8=
EXTT9=
EXTT10=
EXTT11=
PLAYORDER=
